<svg width="27" height="26" viewBox="0 0 27 26" fill="none" xmlns="http://www.w3.org/2000/svg">
<path d="M26.4873 12.9328C26.4873 21.5365 22.339 25.0556 13.2437 25.0556C4.14827 25.0556 0 21.5365 0 12.9328C0 4.32903 4.14827 0 13.2437 0C22.339 0 26.4873 4.32903 26.4873 12.9328Z" fill="#BD1515"/>
<path d="M14.5229 20.3363V13.2142H17.0499L17.4285 10.436H14.5229V8.66295C14.5229 7.86036 14.7578 7.31213 15.977 7.31213H17.5433V4.82781C16.7914 4.75369 16.0359 4.71742 15.2799 4.71915C13.0244 4.71915 11.4867 6.01317 11.4867 8.39624V10.4435H8.95703V13.2142H11.4867V20.3363H14.5229Z" fill="white"/>
</svg>
