<svg width="26" height="26" viewBox="0 0 26 26" fill="none" xmlns="http://www.w3.org/2000/svg">
<path d="M25.7123 12.9328C25.7123 21.5365 21.7883 25.0556 13.1845 25.0556C4.58078 25.0556 0.656738 21.5365 0.656738 12.9328C0.656738 4.32903 4.58078 0 13.1845 0C21.7883 0 25.7123 4.32903 25.7123 12.9328Z" fill="#BD1515"/>
<path d="M13.1845 5.8874C15.3478 5.8874 15.6047 5.8874 16.4591 5.93432C16.9728 5.93974 17.4816 6.03415 17.963 6.21337C18.3149 6.34246 18.6332 6.54927 18.894 6.8184C19.1631 7.07978 19.3707 7.39781 19.5015 7.7494C19.6793 8.23121 19.7737 8.7398 19.7806 9.25333C19.8176 10.1078 19.8275 10.3646 19.8275 12.5279C19.8275 14.6912 19.8275 14.948 19.7806 15.8024C19.774 16.316 19.6796 16.8246 19.5015 17.3064C19.3657 17.6555 19.1589 17.9725 18.894 18.2373C18.6292 18.5022 18.3121 18.7091 17.963 18.8449C17.4821 19.0227 16.9743 19.117 16.4616 19.1239C15.6071 19.161 15.3503 19.1708 13.187 19.1708C11.0237 19.1708 10.7669 19.1708 9.91246 19.1239C9.39894 19.117 8.89034 19.0227 8.40853 18.8449C8.05694 18.714 7.73891 18.5065 7.47753 18.2374C7.2084 17.9765 7.00159 17.6583 6.8725 17.3064C6.69019 16.8263 6.59244 16.3183 6.58357 15.8049C6.54406 14.9505 6.53665 14.6936 6.53665 12.5304C6.53665 10.3671 6.53665 10.1102 6.58357 9.2558C6.58899 8.74213 6.68341 8.23329 6.86263 7.75187C6.99696 7.40263 7.20308 7.08547 7.46767 6.82088C7.73225 6.5563 8.04942 6.35017 8.39866 6.21584C8.88181 6.03241 9.39325 5.93463 9.90999 5.92691C10.7644 5.8874 11.0213 5.87999 13.1845 5.87999V5.8874ZM13.1845 4.41805C10.9842 4.41805 10.715 4.41805 9.84578 4.46744C9.17059 4.48048 8.50254 4.60824 7.87018 4.84527C7.33206 5.05295 6.84335 5.37095 6.43548 5.77882C6.02761 6.18669 5.70961 6.67539 5.50193 7.21352C5.2649 7.84587 5.13714 8.51393 5.1241 9.18912C5.08459 10.0534 5.07471 10.3276 5.07471 12.5279C5.07471 14.7282 5.07471 14.9974 5.1241 15.8691C5.13709 16.5443 5.26486 17.2124 5.50193 17.8447C5.70999 18.3829 6.02809 18.8718 6.43589 19.28C6.84369 19.6882 7.3322 20.0068 7.87018 20.2154C8.50272 20.4515 9.17075 20.5784 9.84578 20.5908C10.7101 20.6303 10.9842 20.6402 13.1845 20.6402C15.3849 20.6402 15.654 20.6402 16.5258 20.5908C17.2008 20.5785 17.8689 20.4515 18.5014 20.2154C19.0394 20.0064 19.5281 19.6877 19.9362 19.2796C20.3444 18.8714 20.6631 18.3828 20.8721 17.8447C21.1082 17.2122 21.2351 16.5442 21.2475 15.8691C21.287 15.0048 21.2969 14.7282 21.2969 12.5279C21.2969 10.3276 21.2969 10.0584 21.2475 9.18912C21.2351 8.51409 21.1081 7.84606 20.8721 7.21352C20.6635 6.67554 20.3449 6.18703 19.9366 5.77923C19.5284 5.37143 19.0396 5.05333 18.5014 4.84527C17.869 4.6082 17.201 4.48043 16.5258 4.46744C15.6615 4.42792 15.3849 4.41805 13.1845 4.41805Z" fill="white"/>
<path d="M13.1846 8.36667C12.3616 8.36667 11.5571 8.61071 10.8728 9.06794C10.1885 9.52517 9.65513 10.175 9.34018 10.9354C9.02524 11.6957 8.94284 12.5324 9.10339 13.3396C9.26395 14.1467 9.66026 14.8882 10.2422 15.4701C10.8241 16.0521 11.5656 16.4484 12.3728 16.6089C13.1799 16.7695 14.0166 16.6871 14.7769 16.3721C15.5373 16.0572 16.1872 15.5239 16.6444 14.8396C17.1016 14.1553 17.3457 13.3508 17.3457 12.5278C17.345 11.4244 16.9064 10.3664 16.1262 9.58615C15.346 8.80593 14.2879 8.36732 13.1846 8.36667ZM13.1846 15.2294C12.6502 15.2294 12.1279 15.071 11.6836 14.7741C11.2393 14.4772 10.893 14.0553 10.6886 13.5617C10.4841 13.068 10.4306 12.5248 10.5348 12.0007C10.6391 11.4767 10.8964 10.9953 11.2742 10.6174C11.652 10.2396 12.1334 9.9823 12.6575 9.87806C13.1816 9.77381 13.7248 9.82731 14.2184 10.0318C14.7121 10.2363 15.134 10.5825 15.4309 11.0268C15.7277 11.4711 15.8862 11.9934 15.8862 12.5278C15.8862 13.2443 15.6016 13.9315 15.0949 14.4381C14.5882 14.9448 13.9011 15.2294 13.1846 15.2294Z" fill="white"/>
<path d="M18.4816 8.20365C18.4816 8.39609 18.4245 8.5842 18.3176 8.74421C18.2107 8.90422 18.0588 9.02893 17.881 9.10257C17.7032 9.17621 17.5075 9.19548 17.3188 9.15794C17.1301 9.12039 16.9567 9.02773 16.8206 8.89165C16.6846 8.75558 16.5919 8.58221 16.5543 8.39347C16.5168 8.20473 16.5361 8.00909 16.6097 7.8313C16.6834 7.65351 16.8081 7.50156 16.9681 7.39464C17.1281 7.28773 17.3162 7.23067 17.5086 7.23067C17.7667 7.23067 18.0142 7.33318 18.1966 7.51565C18.3791 7.69812 18.4816 7.9456 18.4816 8.20365Z" fill="white"/>
</svg>
