<svg width="28" height="26" viewBox="0 0 28 26" fill="none" xmlns="http://www.w3.org/2000/svg">
<path d="M27.3999 12.9328C27.3999 21.5365 23.2516 25.0556 14.1562 25.0556C5.06086 25.0556 0.912598 21.5365 0.912598 12.9328C0.912598 4.32903 5.06086 0 14.1562 0C23.2516 0 27.3999 4.32903 27.3999 12.9328Z" fill="#BD1515"/>
<path d="M20.6019 7.20603L18.2367 18.4892C18.1894 18.598 18.1183 18.6961 18.0279 18.7769C17.9375 18.8578 17.83 18.9195 17.7125 18.9581C17.595 18.9966 17.4701 19.011 17.3463 19.0005C17.2224 18.9899 17.1023 18.9545 16.994 18.8966L11.5352 14.9454L9.55114 14.0391L6.20956 12.9649C6.20956 12.9649 5.68743 12.792 5.64828 12.4167C5.60912 12.0413 6.22522 11.8388 6.22522 11.8388L19.508 6.91463C19.508 6.91463 20.6019 6.46024 20.6019 7.21097" fill="white"/>
<path d="M11.1172 18.3632C11.1172 18.3632 10.9579 18.3483 10.7569 17.7532C10.5559 17.158 9.55078 14.0292 9.55078 14.0292L11.5531 14.8417L11.1172 18.3632Z" fill="white"/>
<path d="M13.6286 16.4542L11.4696 18.3162C11.4193 18.3505 11.361 18.3728 11.2995 18.3809C11.2381 18.3891 11.1755 18.383 11.1172 18.3631L11.5297 14.9058" fill="white"/>
<path d="M18.0196 9.20869C18.0379 8.94446 17.5732 9.20869 17.5732 9.20869L10.0024 13.755C10.3731 14.9034 10.7856 16.2245 11.2164 17.5112L11.5531 14.8416C11.5531 14.8416 17.6202 9.69519 17.8552 9.4754C18.0901 9.25561 18.0196 9.20869 18.0196 9.20869Z" fill="#3B7FCD"/>
</svg>
