<svg width="28" height="26" viewBox="0 0 28 26" fill="none" xmlns="http://www.w3.org/2000/svg">
<path d="M27.0854 12.9328C27.0854 21.5365 22.9372 25.0556 13.8418 25.0556C4.74641 25.0556 0.598145 21.5365 0.598145 12.9328C0.598145 4.32903 4.74641 0 13.8418 0C22.9372 0 27.0854 4.32903 27.0854 12.9328Z" fill="#BD1515"/>
<path d="M21.8903 8.84579C21.8172 10.39 20.679 12.5015 18.4756 15.1801C16.1991 17.9788 14.2725 19.3782 12.6957 19.3782C11.7193 19.3782 10.8935 18.5262 10.2182 16.8223C9.76919 15.2583 9.31842 13.6942 8.86592 12.1302C8.36468 10.4263 7.82167 9.57429 7.25256 9.57429C7.12725 9.57429 6.69214 9.82124 5.94725 10.3151L5.16406 9.3545C5.99076 8.66798 6.80527 7.98064 7.6076 7.29247C8.691 6.40098 9.5264 5.92684 10.0772 5.87745C11.3791 5.75891 12.1814 6.60183 12.4842 8.40621C12.8079 10.3522 13.0333 11.5622 13.1604 12.0364C13.5363 13.6514 13.9497 14.459 14.4004 14.459C14.7485 14.459 15.275 13.9346 15.9798 12.8859C16.6847 11.8372 17.0606 11.0403 17.1076 10.4954C17.2094 9.59157 16.8335 9.13719 15.9798 9.13719C15.5519 9.1434 15.1299 9.23249 14.7398 9.39895C15.5648 6.84878 17.1372 5.60909 19.4572 5.67989C21.1802 5.72763 21.9912 6.78293 21.8903 8.84579Z" fill="white"/>
</svg>
