<svg width="27" height="26" viewBox="0 0 27 26" fill="none" xmlns="http://www.w3.org/2000/svg">
<path d="M26.7427 12.9328C26.7427 21.5365 22.5944 25.0556 13.499 25.0556C4.40364 25.0556 0.255371 21.5365 0.255371 12.9328C0.255371 4.32903 4.40364 0 13.499 0C22.5944 0 26.7427 4.32903 26.7427 12.9328Z" fill="#BD1515"/>
<path fill-rule="evenodd" clip-rule="evenodd" d="M19.3466 7.00112C17.9296 5.65822 16.0448 4.84853 14.0435 4.72299C12.0421 4.59744 10.0608 5.1646 8.46884 6.31875C6.87687 7.47289 5.78289 9.13526 5.39082 10.996C4.99875 12.8567 5.33534 14.7888 6.33786 16.4321L5.16309 20.4821L9.54631 19.3955C10.7582 20.0198 12.1162 20.3467 13.4962 20.3463C15.1286 20.3446 16.724 19.8857 18.0811 19.0275C19.4382 18.1692 20.4963 16.9499 21.1218 15.5236C21.7473 14.0972 21.9122 12.5275 21.5958 11.0126C21.2794 9.49762 20.4959 8.10522 19.344 7.01099L19.3466 7.00112ZM13.4962 19.0375C12.2661 19.0379 11.0586 18.7248 10.0006 18.1312L9.7395 17.9904L7.12888 18.6349L7.82069 16.2371L7.65883 15.9901C6.84772 14.771 6.48768 13.3316 6.63525 11.898C6.78283 10.4643 7.42966 9.11768 8.47416 8.06953C9.51865 7.02138 10.9016 6.33113 12.4059 6.1072C13.9101 5.88327 15.4503 6.13835 16.7847 6.83236C18.119 7.52638 19.1718 8.62002 19.7777 9.94149C20.3837 11.263 20.5084 12.7374 20.1323 14.1332C19.7562 15.529 18.9007 16.7671 17.7 17.653C16.4993 18.5389 15.0215 19.0224 13.4988 19.0276" fill="white"/>
<path fill-rule="evenodd" clip-rule="evenodd" d="M17.2689 14.1627C17.0626 14.0639 16.0471 13.5922 15.8565 13.5255C15.6659 13.4589 15.5302 13.4292 15.3918 13.6243C15.2535 13.8194 14.8697 14.259 14.7392 14.3899C14.6086 14.5207 14.4964 14.5356 14.2902 14.4392C13.6813 14.2094 13.1195 13.8809 12.6298 13.4687C12.1774 13.0746 11.7902 12.6184 11.4811 12.1154C11.361 11.9204 11.4811 11.8142 11.5725 11.7179C11.6639 11.6215 11.7787 11.4907 11.8806 11.3746C11.9664 11.2765 12.0359 11.1665 12.0868 11.0486C12.1151 10.9952 12.1285 10.9359 12.1257 10.8763C12.123 10.8167 12.1042 10.7587 12.0711 10.7078C12.0189 10.609 11.6064 9.64841 11.4341 9.25823C11.2618 8.86805 11.0948 8.92731 10.9694 8.92237C10.8441 8.91744 10.7084 8.92237 10.5726 8.92237C10.4678 8.92562 10.3648 8.94922 10.2701 8.9917C10.1753 9.03418 10.0908 9.09464 10.0218 9.16932C9.78856 9.37885 9.60386 9.6319 9.47938 9.91246C9.3549 10.193 9.29336 10.495 9.29865 10.7992C9.29865 11.7598 10.0401 12.6884 10.1445 12.8192C10.2489 12.9501 11.5986 14.9233 13.6714 15.7678C14.056 15.9247 14.449 16.0623 14.8488 16.1802C15.2717 16.3013 15.7186 16.3275 16.1541 16.2568C16.5509 16.2 17.3759 15.7851 17.5482 15.3283C17.6837 15.0366 17.7255 14.7137 17.6683 14.3997C17.6187 14.3182 17.4803 14.2688 17.2741 14.1725" fill="white"/>
</svg>
