<svg width="37" height="35" viewBox="0 0 37 35" fill="none" xmlns="http://www.w3.org/2000/svg">
<path d="M37 18.0657C37 30.0843 31.2053 35 18.5 35C5.7947 35 0 30.0843 0 18.0657C0 6.04721 5.7947 0 18.5 0C31.2053 0 37 6.04721 37 18.0657Z" fill="#A60311"/>
<path d="M20.2869 28.4076V18.4589H23.817L24.3458 14.578H20.2869V12.1012C20.2869 10.9801 20.6151 10.2142 22.3182 10.2142H24.5062V6.74391C23.4559 6.64037 22.4005 6.58971 21.3445 6.59212C18.1937 6.59212 16.0457 8.39973 16.0457 11.7286V14.5884H12.512V18.4589H16.0457V28.4076H20.2869Z" fill="white"/>
</svg>
