<svg width="35" height="35" viewBox="0 0 35 35" fill="none" xmlns="http://www.w3.org/2000/svg">
<path d="M35 18.0657C35 30.0843 29.5185 35 17.5 35C5.48147 35 0 30.0843 0 18.0657C0 6.04721 5.48147 0 17.5 0C29.5185 0 35 6.04721 35 18.0657Z" fill="#A60311"/>
<path d="M17.5 8.22416C20.5219 8.22416 20.8806 8.22416 22.0742 8.28971C22.7917 8.29728 23.5025 8.42916 24.175 8.67952C24.6666 8.85983 25.1111 9.14873 25.4755 9.52468C25.8515 9.88979 26.1414 10.3341 26.3242 10.8252C26.5725 11.4982 26.7043 12.2087 26.714 12.926C26.7657 14.1196 26.7795 14.4784 26.7795 17.5002C26.7795 20.5221 26.7795 20.8809 26.714 22.0744C26.7047 22.7918 26.5729 23.5023 26.3242 24.1753C26.1345 24.6629 25.8455 25.1058 25.4755 25.4757C25.1055 25.8457 24.6627 26.1347 24.175 26.3244C23.5032 26.5728 22.7939 26.7046 22.0777 26.7142C20.8841 26.766 20.5253 26.7797 17.5034 26.7797C14.4816 26.7797 14.1228 26.7798 12.9292 26.7142C12.2119 26.7046 11.5014 26.5728 10.8284 26.3244C10.3373 26.1416 9.893 25.8517 9.52788 25.4758C9.15193 25.1114 8.86304 24.6668 8.68272 24.1753C8.42805 23.5047 8.2915 22.7951 8.27911 22.0779C8.22392 20.8843 8.21357 20.5256 8.21357 17.5037C8.21357 14.4818 8.21357 14.123 8.27911 12.9295C8.28668 12.2119 8.41857 11.5011 8.66892 10.8286C8.85657 10.3408 9.1445 9.89775 9.5141 9.52815C9.8837 9.15855 10.3267 8.87062 10.8146 8.68297C11.4895 8.42673 12.2039 8.29014 12.9258 8.27936C14.1193 8.22416 14.4781 8.21381 17.5 8.21381V8.22416ZM17.5 6.17163C14.4264 6.17163 14.0504 6.17163 12.8361 6.24062C11.8929 6.25884 10.9597 6.43732 10.0764 6.76842C9.32467 7.05853 8.64199 7.50274 8.07224 8.07249C7.5025 8.64224 7.05829 9.32491 6.76817 10.0766C6.43707 10.9599 6.2586 11.8932 6.24038 12.8363C6.18519 14.0437 6.17139 14.4266 6.17139 17.5002C6.17139 20.5739 6.17139 20.9499 6.24038 22.1676C6.25853 23.1108 6.43701 24.044 6.76817 24.9273C7.05881 25.6791 7.50317 26.362 8.07282 26.9322C8.64247 27.5025 9.32487 27.9475 10.0764 28.2389C10.96 28.5687 11.8931 28.746 12.8361 28.7633C14.0435 28.8185 14.4264 28.8323 17.5 28.8323C20.5736 28.8323 20.9496 28.8323 22.1673 28.7633C23.1103 28.746 24.0435 28.5687 24.9271 28.2389C25.6787 27.947 26.3612 27.5018 26.9314 26.9316C27.5015 26.3615 27.9468 25.6789 28.2387 24.9273C28.5685 24.0437 28.7458 23.1105 28.763 22.1676C28.8182 20.9602 28.832 20.5739 28.832 17.5002C28.832 14.4266 28.832 14.0506 28.763 12.8363C28.7457 11.8934 28.5684 10.9602 28.2387 10.0766C27.9473 9.32512 27.5022 8.64272 26.932 8.07306C26.3617 7.50341 25.6789 7.05906 24.9271 6.76842C24.0437 6.43725 23.1105 6.25877 22.1673 6.24062C20.96 6.18543 20.5736 6.17163 17.5 6.17163Z" fill="white"/>
<path d="M17.5 11.6873C16.3503 11.6873 15.2265 12.0282 14.2706 12.6669C13.3147 13.3056 12.5697 14.2134 12.1298 15.2755C11.6898 16.3376 11.5747 17.5063 11.799 18.6339C12.0233 19.7614 12.5769 20.7971 13.3898 21.61C14.2027 22.423 15.2384 22.9766 16.366 23.2008C17.4935 23.4251 18.6622 23.31 19.7244 22.8701C20.7865 22.4301 21.6943 21.6851 22.333 20.7292C22.9717 19.7733 23.3126 18.6495 23.3126 17.4999C23.3117 15.9586 22.699 14.4806 21.6091 13.3907C20.5192 12.3009 19.0413 11.6882 17.5 11.6873ZM17.5 21.2738C16.7535 21.2738 16.0239 21.0525 15.4033 20.6378C14.7827 20.2231 14.299 19.6337 14.0133 18.9441C13.7277 18.2545 13.653 17.4957 13.7986 16.7636C13.9442 16.0316 14.3036 15.3591 14.8314 14.8313C15.3592 14.3036 16.0316 13.9441 16.7637 13.7985C17.4958 13.6529 18.2546 13.7276 18.9442 14.0133C19.6338 14.2989 20.2232 14.7826 20.6378 15.4032C21.0525 16.0238 21.2739 16.7535 21.2739 17.4999C21.2739 18.5008 20.8763 19.4607 20.1685 20.1684C19.4608 20.8762 18.5009 21.2738 17.5 21.2738Z" fill="white"/>
<path d="M24.8995 11.4597C24.8995 11.7286 24.8198 11.9913 24.6704 12.2148C24.5211 12.4384 24.3088 12.6126 24.0604 12.7154C23.8121 12.8183 23.5388 12.8452 23.2752 12.7928C23.0115 12.7403 22.7693 12.6109 22.5792 12.4208C22.3892 12.2307 22.2597 11.9886 22.2073 11.7249C22.1548 11.4612 22.1817 11.188 22.2846 10.9396C22.3875 10.6913 22.5617 10.479 22.7852 10.3296C23.0087 10.1803 23.2715 10.1006 23.5403 10.1006C23.9008 10.1006 24.2465 10.2438 24.5014 10.4987C24.7563 10.7536 24.8995 11.0993 24.8995 11.4597Z" fill="white"/>
</svg>
