<svg width="71" height="70" viewBox="0 0 71 70" fill="none" xmlns="http://www.w3.org/2000/svg">
<path d="M26.9491 63.6548C28.547 63.6548 29.8425 62.3594 29.8425 60.7614C29.8425 59.1634 28.547 57.868 26.9491 57.868C25.3511 57.868 24.0557 59.1634 24.0557 60.7614C24.0557 62.3594 25.3511 63.6548 26.9491 63.6548Z" stroke="#A60311" stroke-width="2" stroke-linecap="round" stroke-linejoin="round"/>
<path d="M58.7765 63.6548C60.3744 63.6548 61.6698 62.3594 61.6698 60.7614C61.6698 59.1634 60.3744 57.868 58.7765 57.868C57.1785 57.868 55.8831 59.1634 55.8831 60.7614C55.8831 62.3594 57.1785 63.6548 58.7765 63.6548Z" stroke="#A60311" stroke-width="2" stroke-linecap="round" stroke-linejoin="round"/>
<path d="M3.80188 2.89343H15.3755L23.1298 41.636C23.3944 42.9681 24.1191 44.1648 25.177 45.0164C26.2349 45.868 27.5587 46.3204 28.9166 46.2944H57.0404C58.3983 46.3204 59.7221 45.868 60.78 45.0164C61.8379 44.1648 62.5626 42.9681 62.8272 41.636L67.4566 17.3604H18.2689" stroke="#A60311" stroke-width="2" stroke-linecap="round" stroke-linejoin="round"/>
</svg>
