<svg width="25" height="44" viewBox="0 0 25 44" fill="none" xmlns="http://www.w3.org/2000/svg">
<path d="M15.4375 43.3304H8.56553C7.4177 43.3304 6.48398 42.3985 6.48398 41.2529V25.7832H2.47474C1.32691 25.7832 0.393188 24.8509 0.393188 23.7057V17.0769C0.393188 15.9313 1.32691 14.9994 2.47474 14.9994H6.48398V11.6799C6.48398 8.38854 7.51952 5.58827 9.4783 3.58234C11.4459 1.56726 14.1957 0.50238 17.4303 0.50238L22.6712 0.510876C23.8171 0.512836 24.7491 1.44473 24.7491 2.58836V8.74306C24.7491 9.88865 23.8157 10.8206 22.6682 10.8206L19.1396 10.8219C18.0635 10.8219 17.7895 11.0372 17.7309 11.1032C17.6343 11.2127 17.5194 11.5221 17.5194 12.3765V14.9991H22.4031C22.7707 14.9991 23.1269 15.0896 23.433 15.2601C24.0934 15.6284 24.5039 16.3247 24.5039 17.0772L24.5013 23.706C24.5013 24.8509 23.5676 25.7828 22.4198 25.7828H17.5194V41.2529C17.5194 42.3985 16.5853 43.3304 15.4375 43.3304V43.3304ZM8.99965 40.8196H15.0034V24.6591C15.0034 23.8942 15.627 23.2721 16.3931 23.2721H21.9856L21.9879 17.5101H16.3928C15.6267 17.5101 15.0034 16.888 15.0034 16.1231V12.3765C15.0034 11.3956 15.1032 10.2801 15.8451 9.44166C16.7415 8.42807 18.1542 8.3111 19.139 8.3111L22.2335 8.30979V3.02098L17.4283 3.01314C12.23 3.01314 8.99965 6.33425 8.99965 11.6799V16.1231C8.99965 16.8877 8.3763 17.5101 7.6102 17.5101H2.90886V23.2721H7.6102C8.3763 23.2721 8.99965 23.8942 8.99965 24.6591V40.8196ZM22.6663 3.02164H22.6666H22.6663Z" fill="#A60311"/>
</svg>
