<svg width="70" height="70" viewBox="0 0 70 70" fill="none" xmlns="http://www.w3.org/2000/svg">
<path d="M60.5165 13.3386C59.0387 11.8601 57.2841 10.6872 55.3529 9.887C53.4216 9.08679 51.3517 8.67493 49.2612 8.67493C47.1708 8.67493 45.1008 9.08679 43.1696 9.887C41.2384 10.6872 39.4837 11.8601 38.0059 13.3386L34.9389 16.4056L31.8719 13.3386C28.8868 10.3535 24.8381 8.67647 20.6166 8.67647C16.395 8.67647 12.3464 10.3535 9.36126 13.3386C6.37617 16.3237 4.69916 20.3723 4.69916 24.5939C4.69916 28.8155 6.37617 32.8641 9.36126 35.8492L12.4283 38.9162L34.9389 61.4269L57.4495 38.9162L60.5165 35.8492C61.9951 34.3714 63.1679 32.6168 63.9681 30.6855C64.7683 28.7543 65.1802 26.6843 65.1802 24.5939C65.1802 22.5035 64.7683 20.4335 63.9681 18.5023C63.1679 16.571 61.9951 14.8164 60.5165 13.3386V13.3386Z" stroke="#A60311" stroke-width="2" stroke-linecap="round" stroke-linejoin="round"/>
</svg>
