<svg width="14" height="13" viewBox="0 0 14 13" fill="none" xmlns="http://www.w3.org/2000/svg">
<path fill-rule="evenodd" clip-rule="evenodd" d="M6.6827 2.13458C7.41016 1.28032 8.5247 0.739731 9.68596 0.739731C11.7415 0.739731 13.3566 2.35482 13.3566 4.41038C13.3566 6.93105 11.0912 8.98531 7.65888 12.0977L7.65042 12.1054L6.6827 12.9864L5.71498 12.1121L5.68864 12.0881C2.26633 8.97817 0.00878906 6.92667 0.00878906 4.41038C0.00878906 2.35482 1.62388 0.739731 3.67944 0.739731C4.8407 0.739731 5.95525 1.28032 6.6827 2.13458ZM6.68256 11.1844L6.7493 11.1177C9.92608 8.24121 12.0217 6.33914 12.0217 4.41038C12.0217 3.0756 11.0206 2.07451 9.68582 2.07451C8.65803 2.07451 7.65695 2.73523 7.3099 3.64956H6.06188C5.70817 2.73523 4.70708 2.07451 3.6793 2.07451C2.34451 2.07451 1.34343 3.0756 1.34343 4.41038C1.34343 6.33914 3.43903 8.24121 6.61582 11.1177L6.68256 11.1844Z" fill="black" fill-opacity="0.54"/>
</svg>
