<svg width="80" height="80" viewBox="0 0 80 80" fill="none" xmlns="http://www.w3.org/2000/svg">
<g clip-path="url(#clip0)">
<path d="M2.33418 15.1134L15.1025 2.34514C16.6027 0.844944 18.6029 0.0115051 20.7365 0.0115051C22.4034 0.0115051 24.0036 0.528237 25.3704 1.49503L36.1051 9.17934C36.8219 9.69607 37.6887 9.96277 38.5555 9.91276C39.0722 9.87943 39.5889 9.87943 40.1056 9.87943C48.1067 9.87943 55.6576 12.9965 61.325 18.6805C67.3258 24.6813 70.5262 32.9824 70.0928 41.4501C70.0428 42.3002 70.3095 43.167 70.8262 43.9004L78.5105 54.6351C80.7775 57.8189 80.4274 62.1194 77.6604 64.8864L64.8921 77.6547C63.3919 79.1549 61.3917 79.9883 59.2581 79.9883C57.5912 79.9883 55.991 79.4716 54.6408 78.5048L43.8728 70.8205C43.156 70.3038 42.3059 70.0537 41.4392 70.0871C40.9558 70.1038 40.4557 70.1204 39.9723 70.1204C31.9379 70.1204 24.3703 66.9867 18.6863 61.3026C12.7022 55.3185 9.50175 47.0175 9.90181 38.5497C9.93514 37.6996 9.68511 36.8495 9.16838 36.1161L1.48407 25.3481C-0.782883 22.181 -0.416168 17.8804 2.33418 15.1134ZM4.73448 23.0478L12.4188 33.8158C13.4523 35.266 13.969 37.0162 13.8857 38.7664C13.5356 46.1174 16.3026 53.3016 21.5033 58.5023C26.4372 63.4362 32.9881 66.1532 39.9556 66.1532C40.3723 66.1532 40.8057 66.1366 41.2391 66.1199C43.006 66.0366 44.7229 66.5533 46.1898 67.5868L56.9578 75.2711C57.6245 75.7545 58.4246 76.0045 59.2581 76.0045C60.3082 76.0045 61.3083 75.5878 62.0584 74.8377L74.8267 62.0694C76.1936 60.7026 76.3769 58.5523 75.2434 56.9688L67.5591 46.234C66.509 44.7839 65.9923 43.017 66.0756 41.2501C66.459 33.9158 63.692 26.7149 58.4746 21.5142C53.5574 16.5969 47.0232 13.8799 40.089 13.8799C39.6389 13.8799 39.1889 13.8966 38.7388 13.9133C36.9552 13.9966 35.2217 13.4799 33.7548 12.4298L23.0201 4.74544C22.3367 4.26205 21.5533 4.01201 20.7199 4.01201C19.6697 4.01201 18.6696 4.42873 17.9195 5.17883L5.15121 17.9471C3.80103 19.314 3.61768 21.4642 4.73448 23.0478Z" fill="black"/>
<path d="M23.3202 35.1826C24.4037 35.366 25.1538 36.3828 24.9704 37.4829C24.8037 38.4664 23.9703 39.1498 23.0035 39.1498C22.9035 39.1498 22.7868 39.1498 22.6701 39.1165C21.5867 38.9331 20.8366 37.9163 21.0199 36.8162C21.2033 35.7494 22.2368 35.016 23.3202 35.1826Z" fill="black"/>
<path d="M55.2404 48.301C56.1405 48.9344 56.3572 50.1845 55.7238 51.0847C55.3404 51.6347 54.707 51.9348 54.0903 51.9348C53.6902 51.9348 53.2902 51.8181 52.9401 51.5681C52.04 50.9346 51.8233 49.6845 52.4567 48.7844C53.0902 47.8843 54.3236 47.6676 55.2404 48.301Z" fill="black"/>
<path d="M22.9031 42.9003C23.9699 42.6002 25.07 43.2003 25.3867 44.2671C25.6868 45.3339 25.0867 46.4341 24.0199 46.7508C23.8365 46.8008 23.6532 46.8341 23.4698 46.8341C22.603 46.8341 21.8029 46.2674 21.5529 45.3839C21.2195 44.3171 21.8363 43.2003 22.9031 42.9003Z" fill="black"/>
<path d="M51.4736 26.9816C52.2903 26.2482 53.5572 26.3149 54.2906 27.1316L54.3073 27.1483C55.0407 27.9651 54.974 29.2319 54.1572 29.9653C53.7739 30.3154 53.2905 30.482 52.8237 30.482C52.2737 30.482 51.7403 30.2654 51.3402 29.832L51.3235 29.8153C50.5735 28.9819 50.6401 27.715 51.4736 26.9816Z" fill="black"/>
<path d="M55.0082 42.5169C55.1916 41.4334 56.225 40.6833 57.3085 40.8667C58.392 41.0501 59.1421 42.0835 58.9587 43.167C58.792 44.1504 57.9419 44.8505 56.9918 44.8505C56.8918 44.8505 56.7751 44.8339 56.6584 44.8172C55.5583 44.6338 54.8249 43.6004 55.0082 42.5169Z" fill="black"/>
<path d="M57.0916 37.0996C56.9082 37.1496 56.7249 37.1829 56.5415 37.1829C55.6747 37.1829 54.8746 36.6162 54.6246 35.7327C54.3246 34.6659 54.9413 33.5658 55.9915 33.2491C57.0583 32.949 58.1584 33.5658 58.4751 34.6159C58.7585 35.6827 58.1417 36.7995 57.0916 37.0996Z" fill="black"/>
<path d="M40.8892 55.2019C41.9893 55.1352 42.9394 55.9853 43.0061 57.0854C43.0728 58.1856 42.2227 59.1357 41.1225 59.2024C41.0892 59.2024 41.0392 59.2024 41.0058 59.2024C39.9557 59.2024 39.0723 58.3856 39.0056 57.3188C38.9389 56.2186 39.789 55.2685 40.8892 55.2019Z" fill="black"/>
<path d="M25.9037 32.0656C25.5037 32.0656 25.1036 31.9489 24.7536 31.6989C23.8535 31.0655 23.6368 29.8153 24.2702 28.9152C24.9036 28.0151 26.1538 27.7984 27.0539 28.4318C27.954 29.0652 28.1707 30.3154 27.5373 31.2155C27.1372 31.7655 26.5205 32.0656 25.9037 32.0656Z" fill="black"/>
<path d="M38.855 20.7975C39.9551 20.7308 40.9052 21.5809 40.9719 22.6811C41.0386 23.7812 40.1885 24.7313 39.0883 24.798C39.055 24.798 39.005 24.798 38.9717 24.798C37.9215 24.798 37.0381 23.9812 36.9714 22.9144C36.9047 21.7976 37.7382 20.8642 38.855 20.7975Z" fill="black"/>
<path d="M47.407 53.3183C48.3738 52.7849 49.5907 53.1349 50.1241 54.085C50.6575 55.0518 50.3074 56.2687 49.3573 56.8021C49.0406 56.9687 48.7072 57.0521 48.3905 57.0521C47.6904 57.0521 47.007 56.6854 46.6403 56.0186C46.0902 55.0685 46.4403 53.8517 47.407 53.3183Z" fill="black"/>
<path d="M34.2049 54.1017C35.2217 54.5184 35.7217 55.6852 35.305 56.7187C34.9883 57.4855 34.2382 57.9689 33.4548 57.9689C33.2047 57.9689 32.938 57.9189 32.7047 57.8188C31.6879 57.4021 31.1878 56.2353 31.6045 55.2019C32.0046 54.1684 33.1714 53.685 34.2049 54.1017Z" fill="black"/>
<path d="M25.8368 50.0512C26.6536 49.3178 27.9204 49.3844 28.6705 50.2012C29.404 51.018 29.3373 52.2848 28.5205 53.0182C28.1371 53.3683 27.6537 53.535 27.187 53.535C26.6369 53.535 26.1035 53.3183 25.7035 52.8682C24.9367 52.0515 25.0034 50.7846 25.8368 50.0512Z" fill="black"/>
<path d="M30.6219 23.1811C31.5887 22.6477 32.8055 22.9978 33.3389 23.9479C33.8723 24.9147 33.5223 26.1315 32.5721 26.6649C32.2554 26.8316 31.9221 26.9149 31.6054 26.9149C30.9053 26.9149 30.2219 26.5482 29.8551 25.8815C29.3217 24.9313 29.6551 23.7145 30.6219 23.1811Z" fill="black"/>
<path d="M47.2898 22.1977C48.3066 22.6144 48.8067 23.7812 48.39 24.798C48.0733 25.5648 47.3232 26.0481 46.5397 26.0481C46.2897 26.0481 46.023 25.9981 45.7896 25.8981C44.7728 25.4814 44.2728 24.3146 44.6895 23.2978C45.1062 22.2643 46.273 21.7809 47.2898 22.1977Z" fill="black"/>
</g>
<defs>
<clipPath id="clip0">
<rect width="80" height="80" fill="white" transform="matrix(-1 0 0 1 80 0)"/>
</clipPath>
</defs>
</svg>
