<svg width="46" height="80" viewBox="0 0 46 80" fill="none" xmlns="http://www.w3.org/2000/svg">
<path d="M42.4637 15.8207C41.7568 11.3973 39.6385 7.62249 36.2452 4.80075C32.7332 1.88037 28.0537 0.175599 23.0647 0.000545116C23.0198 -0.00117861 22.9764 -0.00117861 22.9314 0.000545116C17.9423 0.175599 13.261 1.88037 9.74904 4.80075C6.35559 7.62249 4.24211 11.3967 3.53519 15.8207C1.68429 15.8857 0.208008 17.4116 0.208008 19.2778V24.3923C0.208008 26.2997 1.74194 27.875 3.64934 27.875H5.19342C6.25102 27.875 7.10312 26.994 7.10312 25.9362V18.4701C7.48617 8.75901 15.35 4.12524 23.0001 3.83125C30.6508 4.12524 38.5133 8.75824 38.8963 18.4705V24.1082L36.636 24.2134C36.8882 22.7095 36.9859 21.1111 36.9232 19.4364C36.6021 10.8394 29.5154 6.68 23.0677 6.45362C23.0233 6.45189 22.9775 6.45189 22.9331 6.45362C16.4856 6.68 9.39951 10.8392 9.07736 19.4362C8.81152 26.5418 11.4597 32.281 16.3433 35.1823C18.3962 36.4019 20.6978 37.0117 22.9995 37.0117C25.3013 37.0117 27.6029 36.4019 29.6558 35.1823C32.3318 33.5924 34.3367 31.1619 35.5588 28.1098L40.8501 27.8752H42.3494C44.2568 27.8752 45.7915 26.2999 45.7915 24.3925V19.278C45.7913 17.4116 44.3146 15.8859 42.4637 15.8207ZM32.6946 24.3969L25.7027 24.7225C24.6459 24.7717 23.8294 25.6682 23.8786 26.7249C23.9279 27.7815 24.8173 28.5988 25.881 28.549L31.2033 28.3011C30.3183 29.8136 29.14 31.0334 27.6992 31.8892C24.8004 33.6114 21.1986 33.6114 18.2999 31.8892C14.6596 29.7265 12.6934 25.24 12.9052 19.5796C13.1358 13.4234 18.1298 10.4806 22.9999 10.2843C27.8702 10.4806 32.8641 13.4234 33.0939 19.5796C33.1584 21.3049 33.0205 22.9217 32.6946 24.3969ZM39.9605 53.3628C38.3764 44.8089 30.3007 40.9801 22.9999 40.9799C22.9995 40.9799 23.0001 40.9799 22.9997 40.9799C15.6992 40.9799 7.62292 44.8093 6.03862 53.3626L1.52513 77.7312C1.42151 78.2906 1.57205 78.8547 1.93595 79.2921C2.29985 79.7296 2.83957 79.9699 3.4084 79.9699H31.6659C32.7235 79.9699 33.5811 79.1125 33.5811 78.0547C33.5811 76.9969 32.7235 76.1394 31.6659 76.1394H5.71111L9.80535 54.0477C10.3906 50.8872 12.2266 48.6266 14.6247 47.112C15.4452 49.9523 18.7115 51.8157 22.9986 51.8157C22.9992 51.8157 22.9992 51.8157 22.9997 51.8157C27.287 51.8157 30.5539 49.9586 31.3749 47.1185C33.773 48.6329 35.6086 50.9147 36.1939 54.0753L40.7078 78.4362C40.8788 79.3584 41.6836 79.9992 42.5888 79.9992C42.7044 79.9992 42.822 79.9868 42.9398 79.9649C43.98 79.7723 44.667 78.7721 44.4743 77.7319L39.9605 53.3628ZM27.7038 46.0234C27.4232 47.1068 25.3572 47.9852 22.9995 47.9852C22.9993 47.9852 22.9988 47.9852 22.9986 47.9852C20.6417 47.9852 18.5759 47.1066 18.2957 46.0232L18.1689 45.5183C19.7409 45.0514 21.3932 44.8179 22.9999 44.8179C24.6066 44.8179 26.2585 45.055 27.8306 45.5221L27.7038 46.0234Z" fill="black"/>
</svg>
