<svg width="80" height="70" viewBox="0 0 80 70" fill="none" xmlns="http://www.w3.org/2000/svg">
<path d="M78.4047 18.1967L62.1199 1.91192C61.0889 0.880878 59.7183 0.313156 58.2603 0.313156C56.8022 0.313156 55.4317 0.880878 54.4009 1.91192L50.574 5.73859C49.9851 6.32749 49.5653 7.0202 49.302 7.75709L31.3964 4.5514C31.3952 4.55109 31.3937 4.55109 31.3925 4.55079C23.3415 2.95264 15.4808 8.18681 13.8573 16.2387L13.0314 20.3353C12.1193 24.8592 15.0581 29.2815 19.582 30.1936C24.1062 31.1051 28.5284 28.1669 29.4406 23.643L29.9453 21.1379L37.9748 21.84L58.9436 42.8087L62.744 46.6091C63.5135 47.3787 63.5132 48.6309 62.744 49.4005C61.9747 50.1698 60.7224 50.1701 59.9529 49.4005L49.7729 39.2205C49.0639 38.5115 47.9139 38.5115 47.2052 39.2205C46.4961 39.9296 46.4961 41.0793 47.2052 41.7883L57.3851 51.9682C57.7579 52.3411 57.9631 52.8368 57.9631 53.3639C57.9631 53.8911 57.7579 54.3865 57.3851 54.7593C56.6152 55.5289 55.3633 55.5286 54.594 54.7593L44.4141 44.5794C43.705 43.8703 42.555 43.8703 41.8463 44.5794C41.1373 45.2884 41.1373 46.4381 41.8463 47.1472L52.0262 57.3271C52.7958 58.0964 52.7958 59.3486 52.0262 60.1182C51.6534 60.491 51.1577 60.6962 50.6308 60.6962C50.1037 60.6962 49.608 60.491 49.2351 60.1182L39.0552 49.9382C38.3462 49.2292 37.1962 49.2292 36.4874 49.9382C35.7784 50.6473 35.7784 51.797 36.4874 52.506L46.6674 62.686C47.437 63.4555 47.4367 64.7078 46.6674 65.4773C45.8981 66.2466 44.6459 66.2469 43.8763 65.4773L7.85715 29.4588L3.10052 24.7022C2.39147 23.9931 1.24151 23.9931 0.532761 24.7022C-0.176285 25.4112 -0.176285 26.5609 0.532761 27.2699L5.2894 32.0266L10.4658 37.2029L7.61233 40.0564C6.67813 40.9906 6.16337 42.2328 6.16337 43.5544C6.16337 44.876 6.67783 46.1182 7.61233 47.0524L8.5435 47.9836C9.36028 48.8004 10.4125 49.2961 11.547 49.408C11.659 50.5426 12.1547 51.5948 12.9715 52.4113L13.9027 53.3428C14.7412 54.1813 15.8086 54.6543 16.9056 54.7636C17.0167 55.8993 17.513 56.9531 18.3306 57.7704L19.2618 58.7016C20.0786 59.5184 21.1308 60.0141 22.2654 60.1261C22.3773 61.2606 22.873 62.3128 23.6898 63.1296L24.621 64.0608C25.5854 65.0252 26.8522 65.5073 28.119 65.5073C29.3858 65.5073 30.6526 65.0252 31.617 64.0608L34.4705 61.2073L41.3082 68.0451C42.3671 69.104 43.7746 69.6868 45.2717 69.6868C46.7688 69.6868 48.1766 69.1037 49.2351 68.0451C50.238 67.0422 50.8076 65.7249 50.8654 64.3165C52.2741 64.2587 53.5911 63.6892 54.5943 62.6863C55.6281 61.6525 56.1664 60.3122 56.2224 58.9552C57.5791 58.8992 58.9197 58.3609 59.9532 57.3274C60.9869 56.2936 61.5253 54.9533 61.5813 53.5964C62.9382 53.5404 64.2789 53.002 65.3123 51.9682C67.4979 49.7827 67.4979 46.2269 65.3123 44.0413L62.796 41.525L72.0027 32.3183L78.405 25.916C80.5328 23.7877 80.5328 20.3247 78.4047 18.1967ZM10.1801 44.4844C9.66714 43.9714 9.66714 43.1371 10.1801 42.6241L12.8559 39.9484L15.6473 42.7397L12.9715 45.4155C12.4588 45.9285 11.6239 45.9282 11.1113 45.4155L10.1801 44.4844ZM15.5392 49.8435C15.0263 49.3306 15.0263 48.4962 15.5392 47.9836L18.215 45.3078L21.0064 48.0992L18.3309 50.775C17.818 51.2876 16.9831 51.2879 16.4707 50.775L15.5392 49.8435ZM20.8981 55.2027C20.6497 54.9542 20.5129 54.6238 20.5129 54.2727C20.5129 53.9217 20.6497 53.5912 20.8981 53.3428L23.5739 50.667L26.365 53.4581L23.6892 56.1339C23.1766 56.6465 22.3419 56.6465 21.8293 56.1339L20.8981 55.2027ZM29.0487 61.493C28.536 62.006 27.7011 62.0057 27.1884 61.493L26.2573 60.5618C25.7443 60.0489 25.7443 59.2146 26.2573 58.7016L28.9331 56.0258L31.7245 58.8172L29.0487 61.493ZM60.2276 38.957L40.0753 18.8047C39.7733 18.5026 39.3751 18.3168 38.9496 18.2799L28.6444 17.379C28.5908 17.3742 28.5375 17.372 28.4849 17.372C27.6287 17.372 26.8785 17.9758 26.7064 18.8292L25.8805 22.9258C25.3642 25.4866 22.8621 27.1498 20.2995 26.6338C19.0591 26.3839 17.9899 25.6654 17.2896 24.6114C16.5894 23.5574 16.3412 22.2936 16.5915 21.0528L17.4173 16.9565C18.6478 10.8529 24.6119 6.88674 30.7179 8.11872C30.7306 8.12114 30.7437 8.12387 30.7567 8.12598L48.4014 11.2851L50.574 13.4576L68.1506 31.0343L60.2276 38.957ZM75.8367 23.3479L70.7181 28.4665L53.1414 10.8898C52.7964 10.5449 52.6064 10.0861 52.6064 9.59794C52.6064 9.10981 52.7964 8.65134 53.1414 8.30605L56.9684 4.47907C57.3134 4.13408 57.7722 3.94403 58.26 3.94403C58.7478 3.94403 59.2066 4.13408 59.5519 4.47907L75.8367 20.7638C76.1816 21.1088 76.3717 21.5676 76.3717 22.0557C76.3717 22.5439 76.1816 23.003 75.8367 23.3479Z" fill="black"/>
<path d="M71.4407 24.5926C72.4435 24.5926 73.2565 23.7797 73.2565 22.7769C73.2565 21.7741 72.4435 20.9612 71.4407 20.9612C70.4379 20.9612 69.625 21.7741 69.625 22.7769C69.625 23.7797 70.4379 24.5926 71.4407 24.5926Z" fill="black"/>
</svg>
