<svg width="80" height="80" viewBox="0 0 80 80" fill="none" xmlns="http://www.w3.org/2000/svg">
<path d="M76.9281 44.2412L45.8809 13.1768C44.2414 11.5372 42.0496 10.6226 39.737 10.6226C39.5472 10.6226 39.3574 10.6226 39.1675 10.6398L16.7148 12.124C14.2814 12.2793 12.314 14.2468 12.1587 16.6801L11.6237 24.6534C10.4847 23.9975 9.39741 23.1692 8.4137 22.1855C6.01483 19.7866 4.53064 16.8009 4.22 13.7635C3.92661 10.8814 4.755 8.30998 6.54983 6.51515C10.3639 2.70112 17.3879 3.54676 22.2374 8.37902C23.0485 9.19014 24.3601 9.19014 25.1713 8.37902C25.9824 7.56789 25.9824 6.25628 25.1713 5.44515C18.6822 -0.992103 9.01773 -1.82049 3.59871 3.59854C0.906456 6.29079 -0.336122 10.0358 0.0780705 14.195C0.475005 18.1816 2.39065 22.0646 5.46258 25.1366C7.18838 26.8624 9.19031 28.2258 11.3131 29.1577L10.6572 39.1501C10.4847 41.6525 11.4166 44.1032 13.1942 45.8807L44.2586 76.9452C46.2261 78.9126 48.832 79.9826 51.6106 79.9826C54.3891 79.9826 56.9951 78.8954 58.9625 76.9452L76.9626 58.9451C78.93 56.9777 80 54.3717 80 51.5932C79.9828 48.7974 78.8955 46.1914 76.9281 44.2412ZM74.0115 55.994L55.9941 74.0114C54.8206 75.1849 53.2501 75.8407 51.576 75.8407C49.902 75.8407 48.3315 75.1849 47.158 74.0114L16.0935 42.9469C15.1616 42.0149 14.6784 40.7379 14.7647 39.4262L15.3687 30.383C15.7139 30.4348 16.059 30.4866 16.4042 30.5211C16.9219 30.5729 17.4397 30.6074 17.9401 30.6074C21.478 30.6074 24.6363 29.3648 26.9833 27.0177C27.7945 26.2066 27.7945 24.895 26.9833 24.0838C26.1722 23.2727 24.8606 23.2727 24.0495 24.0838C22.2546 25.8787 19.6832 26.7071 16.8011 26.4137C16.4042 26.3792 16.0245 26.3101 15.6448 26.2411L16.2661 16.9908C16.2834 16.6111 16.594 16.3177 16.9737 16.2832L39.4264 14.799C39.5299 14.799 39.6335 14.7818 39.737 14.7818C40.9451 14.7818 42.1186 15.265 42.9643 16.1106L74.0115 47.1578C75.185 48.3314 75.8409 49.9019 75.8409 51.5759C75.8409 53.2499 75.185 54.8204 74.0115 55.994Z" fill="black"/>
</svg>
