<svg width="44" height="44" viewBox="0 0 44 44" fill="none" xmlns="http://www.w3.org/2000/svg">
<g clip-path="url(#clip0)">
<path d="M31.7678 0.585999H12.1261C5.73355 0.585999 0.532974 5.78657 0.532974 12.1791V31.8211C0.532974 38.2134 5.73355 43.4139 12.1261 43.4139H31.7681C38.1603 43.4139 43.3609 38.2134 43.3609 31.8211V12.1791C43.3609 5.78657 38.1603 0.585999 31.7678 0.585999V0.585999ZM40.8501 31.8211C40.8501 36.8289 36.7759 40.9032 31.7678 40.9032H12.1261C7.11799 40.9032 3.04373 36.8289 3.04373 31.8211V12.1791C3.04373 7.17101 7.11799 3.09675 12.1261 3.09675H31.7681C36.7759 3.09675 40.8501 7.17101 40.8501 12.1791V31.8211Z" fill="#835647"/>
<path d="M21.9469 10.2896C15.4897 10.2896 10.2365 15.5427 10.2365 22C10.2365 28.4572 15.4897 33.7104 21.9469 33.7104C28.4042 33.7104 33.6574 28.4572 33.6574 22C33.6574 15.5427 28.4042 10.2896 21.9469 10.2896ZM21.9469 31.1997C16.8745 31.1997 12.7473 27.0728 12.7473 22C12.7473 16.9275 16.8745 12.8003 21.9469 12.8003C27.0198 12.8003 31.1466 16.9275 31.1466 22C31.1466 27.0728 27.0198 31.1997 21.9469 31.1997Z" fill="#835647"/>
<path d="M33.9374 6.13062C32.0292 6.13062 30.4771 7.68301 30.4771 9.59091C30.4771 11.4991 32.0292 13.0515 33.9374 13.0515C35.8456 13.0515 37.398 11.4991 37.398 9.59091C37.398 7.68268 35.8456 6.13062 33.9374 6.13062ZM33.9374 10.5405C33.4139 10.5405 32.9879 10.1144 32.9879 9.59091C32.9879 9.06713 33.4139 8.64137 33.9374 8.64137C34.4612 8.64137 34.8873 9.06713 34.8873 9.59091C34.8873 10.1144 34.4612 10.5405 33.9374 10.5405Z" fill="#835647"/>
</g>
<defs>
<clipPath id="clip0">
<rect width="42.828" height="42.828" fill="white" transform="translate(0.532974 0.585999)"/>
</clipPath>
</defs>
</svg>
