<svg width="43" height="36" viewBox="0 0 43 36" fill="none" xmlns="http://www.w3.org/2000/svg">
<path d="M42.4719 4.41075C42.185 4.21627 41.805 4.2268 41.5278 4.43587C41.164 4.71139 40.5724 4.93019 39.9355 5.09874C41.5943 3.23979 41.6299 1.99833 41.6121 1.71308C41.5934 1.41811 41.416 1.15637 41.1486 1.03077C40.8803 0.90435 40.5659 0.935143 40.3269 1.10856C38.4606 2.46509 36.6017 2.75115 35.4963 2.78032C33.7995 1.15637 31.5961 0.266602 29.2509 0.266602C24.23 0.266602 20.1458 4.40589 20.1458 9.49329C20.1458 9.93088 20.1766 10.3677 20.2374 10.8004C11.5358 10.7023 4.46951 2.36461 4.39658 2.2779C4.22641 2.07531 3.96871 1.96672 3.70454 1.99022C3.44036 2.01291 3.20455 2.16283 3.07246 2.39297C0.568469 6.73647 2.24428 10.5516 3.77585 12.7363C3.50519 12.5921 3.28559 12.4495 3.15431 12.353C2.9112 12.1715 2.58625 12.1415 2.31235 12.276C2.03926 12.4106 1.86503 12.6861 1.85936 12.99C1.7921 17.1293 3.78395 19.5003 5.65749 20.8115C5.4079 20.788 5.15426 20.8804 4.98085 21.0692C4.78636 21.2807 4.71748 21.5797 4.80176 21.8544C6.09589 26.0901 9.27329 27.5293 11.2951 28.018C7.13801 31.2545 1.01984 30.2124 0.952576 30.2011C0.583055 30.1354 0.218396 30.3299 0.0676698 30.6727C-0.0822457 31.0147 0.0198589 31.4158 0.318069 31.6427C4.70614 34.9919 9.9548 35.7334 13.7456 35.7334C16.6135 35.7334 18.6483 35.3087 18.8428 35.2658C38.0465 30.7148 38.587 13.1245 38.5425 10.2421C42.1477 6.88962 42.7109 5.61251 42.7976 5.29647C42.8908 4.96179 42.7595 4.60524 42.4719 4.41075ZM37.1738 9.30124C36.9931 9.46736 36.8983 9.70641 36.9145 9.95195C36.9655 10.7299 37.9477 29.0739 18.4854 33.6856C18.3971 33.7042 10.6606 35.3185 3.95413 31.996C6.78793 31.9174 10.8511 31.1751 13.6816 27.9969C13.8955 27.7579 13.9474 27.4143 13.8145 27.1225C13.6832 26.8332 13.3939 26.6477 13.0771 26.6477C13.0747 26.6477 13.0714 26.6477 13.069 26.6477C13.0285 26.6736 8.7733 26.6428 6.82521 22.5951C7.60963 22.6397 8.5772 22.591 9.34784 22.2361C9.6655 22.0894 9.85269 21.7564 9.8138 21.4087C9.7749 21.0619 9.51721 20.7791 9.17524 20.707C8.95725 20.6608 4.21992 19.6016 3.55705 14.434C4.27584 14.7484 5.19559 15.0053 6.10481 14.8667C6.4176 14.8197 6.67368 14.5953 6.762 14.2914C6.85033 13.9875 6.7539 13.6601 6.51485 13.4527C6.31226 13.276 1.86341 9.32231 3.97277 4.22275C6.26283 6.62545 13.0455 12.8692 21.2633 12.3976C21.504 12.3838 21.7268 12.2623 21.8702 12.0678C22.0129 11.8733 22.0615 11.6253 22.0031 11.3911C21.8476 10.7712 21.7681 10.1327 21.7681 9.4941C21.7681 5.29971 25.1262 1.88812 29.2534 1.88812C31.272 1.88812 33.1658 2.69361 34.5847 4.15711C34.7338 4.31108 34.9388 4.39941 35.1528 4.40346C36.0117 4.41561 37.4234 4.31432 39.0181 3.67495C38.5579 4.24787 37.882 4.93424 36.8877 5.71542C36.6065 5.93665 36.5036 6.31508 36.6341 6.64814C36.7645 6.982 37.1017 7.19189 37.4534 7.16028C37.6422 7.14488 38.6049 7.06061 39.6932 6.8248C39.0984 7.46335 38.2856 8.27857 37.1738 9.30124Z" fill="#835647"/>
</svg>
