<svg width="37" height="35" viewBox="0 0 37 35" fill="none" xmlns="http://www.w3.org/2000/svg">
<path d="M37 18.0657C37 30.0843 31.2053 35 18.5 35C5.7947 35 0 30.0843 0 18.0657C0 6.04721 5.7947 0 18.5 0C31.2053 0 37 6.04721 37 18.0657Z" fill="#BD1515"/>
<path d="M29.743 12.3566C29.6408 14.5138 28.0509 17.4632 24.973 21.2049C21.793 25.1145 19.1017 27.0693 16.8991 27.0693C15.5352 27.0693 14.3816 25.8792 13.4383 23.4989C12.8111 21.3142 12.1814 19.1294 11.5493 16.9446C10.8491 14.5644 10.0906 13.3743 9.29558 13.3743C9.12054 13.3743 8.51274 13.7192 7.4722 14.4091L6.37817 13.0672C7.53298 12.1082 8.67077 11.1481 9.79154 10.1868C11.3049 8.94148 12.4719 8.27915 13.2414 8.21015C15.0599 8.04457 16.1807 9.22205 16.6037 11.7426C17.0559 14.4609 17.3707 16.1512 17.5482 16.8135C18.0733 19.0696 18.6507 20.1976 19.2804 20.1976C19.7666 20.1976 20.5021 19.4652 21.4867 18.0002C22.4713 16.5353 22.9965 15.4222 23.0621 14.661C23.2043 13.3984 22.6792 12.7637 21.4867 12.7637C20.8889 12.7724 20.2994 12.8968 19.7545 13.1293C20.9069 9.56701 23.1034 7.83529 26.3442 7.93418C28.751 8.00088 29.884 9.47502 29.743 12.3566Z" fill="white"/>
</svg>
