<svg width="37" height="35" viewBox="0 0 37 35" fill="none" xmlns="http://www.w3.org/2000/svg">
<path d="M37 18.0657C37 30.0843 31.2053 35 18.5 35C5.7947 35 0 30.0843 0 18.0657C0 6.04721 5.7947 0 18.5 0C31.2053 0 37 6.04721 37 18.0657Z" fill="#BD1515"/>
<path fill-rule="evenodd" clip-rule="evenodd" d="M26.6687 9.77975C24.6894 7.90386 22.0565 6.77281 19.2608 6.59744C16.4652 6.42206 13.6975 7.21432 11.4736 8.82655C9.24981 10.4388 7.72163 12.7609 7.17395 15.3602C6.62627 17.9594 7.09646 20.6584 8.49688 22.9539L6.85583 28.6113L12.9787 27.0935C14.6717 27.9655 16.5687 28.4221 18.4963 28.4216C20.7767 28.4193 23.0053 27.7782 24.901 26.5793C26.7967 25.3803 28.2747 23.6772 29.1484 21.6847C30.0222 19.6922 30.2526 17.4996 29.8106 15.3833C29.3687 13.2671 28.2741 11.3221 26.665 9.79355L26.6687 9.77975ZM18.4963 26.5933C16.778 26.5938 15.0912 26.1565 13.6133 25.3273L13.2486 25.1306L9.60184 26.031L10.5682 22.6814L10.3421 22.3364C9.2091 20.6335 8.70615 18.6228 8.9123 16.6202C9.11844 14.6175 10.022 12.7364 11.4811 11.2722C12.9401 9.80805 14.872 8.84385 16.9732 8.53104C19.0745 8.21823 21.226 8.57455 23.09 9.54401C24.9539 10.5135 26.4246 12.0412 27.271 13.8871C28.1174 15.7331 28.2917 17.7927 27.7663 19.7425C27.2409 21.6923 26.0458 23.4218 24.3686 24.6593C22.6913 25.8968 20.627 26.5722 18.4999 26.5795" fill="white"/>
<path fill-rule="evenodd" clip-rule="evenodd" d="M23.7659 19.7836C23.4779 19.6457 22.0593 18.9868 21.7931 18.8936C21.5268 18.8005 21.3372 18.7591 21.1439 19.0316C20.9507 19.3041 20.4146 19.9182 20.2322 20.101C20.0499 20.2838 19.8931 20.3045 19.605 20.17C18.7546 19.8489 17.9697 19.3901 17.2857 18.8143C16.6537 18.2638 16.1128 17.6265 15.6811 16.9239C15.5133 16.6514 15.6811 16.503 15.8087 16.3685C15.9364 16.234 16.0968 16.0511 16.239 15.889C16.359 15.7519 16.4561 15.5984 16.5271 15.4337C16.5666 15.3591 16.5853 15.2762 16.5815 15.1929C16.5777 15.1096 16.5514 15.0286 16.5053 14.9576C16.4323 14.8196 15.8561 13.4777 15.6154 12.9327C15.3748 12.3876 15.1414 12.4704 14.9663 12.4635C14.7913 12.4566 14.6016 12.4635 14.412 12.4635C14.2656 12.4681 14.1218 12.501 13.9894 12.5604C13.857 12.6197 13.739 12.7042 13.6425 12.8085C13.3167 13.1012 13.0587 13.4547 12.8849 13.8466C12.711 14.2385 12.625 14.6603 12.6324 15.0852C12.6324 16.4271 13.6681 17.7242 13.8139 17.907C13.9598 18.0899 15.8452 20.8461 18.7407 22.0259C19.2779 22.245 19.8269 22.4373 20.3854 22.602C20.9762 22.7711 21.6005 22.8077 22.2088 22.7089C22.7631 22.6296 23.9155 22.0501 24.1561 21.4119C24.3455 21.0045 24.4038 20.5534 24.3239 20.1148C24.2546 20.001 24.0613 19.932 23.7732 19.7974" fill="white"/>
</svg>
