<svg width="43" height="44" viewBox="0 0 43 44" fill="none" xmlns="http://www.w3.org/2000/svg">
<g clip-path="url(#clip0)">
<path d="M28.072 20.0755L18.6104 14.8984C18.0663 14.6007 17.4233 14.6118 16.89 14.9278C16.3564 15.2441 16.0382 15.8029 16.0382 16.423V26.6883C16.0382 27.3055 16.3545 27.8633 16.8845 28.1799C17.1612 28.3452 17.468 28.4282 17.7755 28.4282C18.0572 28.4282 18.3395 28.3586 18.5992 28.2188L28.0613 23.1309C28.6229 22.8287 28.9736 22.2448 28.9762 21.6066C28.9785 20.9685 28.6321 20.382 28.072 20.0755V20.0755ZM18.5479 25.3969V17.7248L25.6195 21.5942L18.5479 25.3969Z" fill="#A60311"/>
<path d="M42.5788 13.4283L42.5769 13.4087C42.5406 13.064 42.1795 9.99777 40.6889 8.43818C38.9659 6.6038 37.0126 6.38096 36.0732 6.27411C35.9954 6.26529 35.9242 6.25712 35.8605 6.24862L35.7857 6.24078C30.1237 5.82907 21.573 5.77287 21.4874 5.77254L21.4799 5.77222L21.4724 5.77254C21.3868 5.77287 12.836 5.82907 7.12311 6.24078L7.04763 6.24862C6.98686 6.25679 6.91987 6.2643 6.84701 6.2728C5.91838 6.37998 3.98598 6.60315 2.25813 8.50386C0.838394 10.0468 0.427996 13.0473 0.385845 13.3846L0.380944 13.4283C0.3682 13.5718 0.0659561 16.9867 0.0659561 20.4149V23.6197C0.0659561 27.048 0.3682 30.4629 0.380944 30.6067L0.383231 30.6282C0.4195 30.9674 0.780233 33.9774 2.26401 35.5377C3.88404 37.3106 5.93243 37.5452 7.03424 37.6714C7.2084 37.6913 7.35837 37.7083 7.46065 37.7263L7.55965 37.74C10.8288 38.051 21.0786 38.2043 21.5132 38.2105L21.5263 38.2108L21.5393 38.2105C21.625 38.2102 30.1754 38.154 35.8373 37.7423L35.9121 37.7344C35.9837 37.725 36.0641 37.7165 36.1523 37.7073C37.0757 37.6093 38.9976 37.4057 40.7016 35.5308C42.1214 33.9876 42.5321 30.987 42.5739 30.6501L42.5788 30.6063C42.5916 30.4626 42.8941 27.048 42.8941 23.6197V20.4149C42.8938 16.9867 42.5916 13.5721 42.5788 13.4283V13.4283ZM40.384 23.6197C40.384 26.7928 40.1069 30.0607 40.0808 30.3606C39.9743 31.187 39.5413 33.0854 38.8496 33.8373C37.7831 35.0106 36.6875 35.1269 35.8876 35.2116C35.7909 35.2217 35.7014 35.2315 35.6203 35.2416C30.144 35.6377 21.9161 35.6984 21.5371 35.7007C21.112 35.6945 11.0121 35.54 7.84262 35.2456C7.68022 35.2191 7.50476 35.1988 7.31982 35.1779C6.38172 35.0704 5.09759 34.9234 4.11015 33.8373L4.08695 33.8124C3.40731 33.1044 2.98678 31.3291 2.87993 30.3704C2.86 30.1437 2.57573 26.8373 2.57573 23.6197V20.4149C2.57573 17.2455 2.85216 13.9812 2.87895 13.675C3.00606 12.7016 3.44717 10.9182 4.11015 10.1974C5.20934 8.98843 6.36832 8.85447 7.13488 8.76592C7.20807 8.75742 7.27636 8.74958 7.33942 8.74141C12.8955 8.34343 21.1825 8.28428 21.4799 8.282C21.7772 8.28396 30.0613 8.34343 35.5681 8.74141C35.6357 8.74991 35.7095 8.7584 35.7889 8.76755C36.5774 8.85741 37.769 8.99334 38.8627 10.1598L38.8728 10.1706C39.5524 10.8787 39.973 12.685 40.0798 13.6629C40.0988 13.877 40.384 17.1906 40.384 20.4149V23.6197Z" fill="#A60311"/>
</g>
<defs>
<clipPath id="clip0">
<rect width="42.828" height="42.828" fill="white" transform="translate(0.0659561 0.585999)"/>
</clipPath>
</defs>
</svg>
